<svg width="100" height="100" viewBox="0 0 100 100" fill="none" xmlns="http://www.w3.org/2000/svg">
<rect width="100" height="100" rx="6" fill="#F6F6F6"/>
<path fill-rule="evenodd" clip-rule="evenodd" d="M55.3337 43.0003C54.4132 43.0003 53.667 43.7465 53.667 44.667C53.667 45.5875 54.4132 46.3337 55.3337 46.3337C56.2541 46.3337 57.0003 45.5875 57.0003 44.667C57.0003 43.7465 56.2541 43.0003 55.3337 43.0003ZM51.667 44.667C51.667 42.6419 53.3086 41.0003 55.3337 41.0003C57.3587 41.0003 59.0003 42.6419 59.0003 44.667C59.0003 46.692 57.3587 48.3337 55.3337 48.3337C53.3086 48.3337 51.667 46.692 51.667 44.667Z" fill="#BBBBBB"/>
<path fill-rule="evenodd" clip-rule="evenodd" d="M49.9238 35.667H50.0768C53.1547 35.667 55.5667 35.667 57.4487 35.92C59.375 36.179 60.8951 36.7194 62.0881 37.9125C63.2812 39.1056 63.8217 40.6256 64.0807 42.5519C64.3337 44.4339 64.3337 46.846 64.3337 49.9238V50.0768C64.3337 53.1547 64.3337 55.5667 64.0807 57.4487C63.8217 59.375 63.2812 60.8951 62.0881 62.0881C60.8951 63.2812 59.375 63.8217 57.4487 64.0807C55.5667 64.3337 53.1547 64.3337 50.0768 64.3337H49.9238C46.846 64.3337 44.4339 64.3337 42.5519 64.0807C40.6256 63.8217 39.1056 63.2812 37.9125 62.0881C36.7194 60.8951 36.179 59.375 35.92 57.4487C35.667 55.5667 35.667 53.1547 35.667 50.0768V49.9238C35.667 46.846 35.667 44.4339 35.92 42.5519C36.179 40.6256 36.7194 39.1056 37.9125 37.9125C39.1056 36.7194 40.6256 36.179 42.5519 35.92C44.4339 35.667 46.846 35.667 49.9238 35.667ZM39.3267 60.6739C38.5672 59.9144 38.1313 58.8868 37.9022 57.1822C37.6975 55.6602 37.6709 53.7184 37.6675 51.1205L39.6609 49.3763C40.4798 48.6598 41.7139 48.7009 42.4832 49.4702L48.2028 55.1899C49.4628 56.4498 51.4461 56.6216 52.9039 55.5971L53.3015 55.3176C54.4457 54.5135 55.9938 54.6066 57.0333 55.5422L61.3314 59.4105C61.3781 59.4526 61.4278 59.4894 61.4796 59.5211C61.2641 59.9756 60.9986 60.3493 60.6739 60.6739C59.9144 61.4335 58.8868 61.8693 57.1822 62.0985C55.4489 62.3315 53.1713 62.3337 50.0003 62.3337C46.8294 62.3337 44.5517 62.3315 42.8184 62.0985C41.1139 61.8693 40.0863 61.4335 39.3267 60.6739ZM42.8184 37.9022C41.1139 38.1313 40.0863 38.5672 39.3267 39.3267C38.5672 40.0863 38.1313 41.1139 37.9022 42.8184C37.7086 44.2578 37.6744 46.0724 37.6683 48.4623L38.3439 47.8711C39.9552 46.4613 42.3835 46.5421 43.8974 48.056L49.617 53.7757C50.1897 54.3483 51.0912 54.4264 51.7539 53.9607L52.1515 53.6813C54.0585 52.3411 56.6387 52.4963 58.3712 54.0556L62.0699 57.3844C62.0798 57.3181 62.0893 57.2507 62.0985 57.1822C62.3315 55.4489 62.3337 53.1713 62.3337 50.0003C62.3337 46.8294 62.3315 44.5517 62.0985 42.8184C61.8693 41.1139 61.4335 40.0863 60.6739 39.3267C59.9144 38.5672 58.8868 38.1313 57.1822 37.9022C55.4489 37.6691 53.1713 37.667 50.0003 37.667C46.8294 37.667 44.5517 37.6691 42.8184 37.9022Z" fill="#BBBBBB"/>
</svg>
