<svg width="14" height="14" viewBox="0 0 14 14" fill="none" xmlns="http://www.w3.org/2000/svg">
<path d="M0 6.20157C0 5.77233 0 5.55771 0.0575768 5.36007C0.108579 5.18499 0.192396 5.02032 0.30491 4.87415C0.431929 4.70914 0.608239 4.57737 0.960859 4.31385L6.23599 0.371542C6.50924 0.167329 6.64586 0.0652231 6.79673 0.0259738C6.92985 -0.00865793 7.07015 -0.00865793 7.20327 0.0259738C7.35414 0.0652231 7.49076 0.167329 7.76402 0.371542L13.0391 4.31385C13.3918 4.57737 13.5681 4.70914 13.6951 4.87415C13.8076 5.02032 13.8914 5.18499 13.9424 5.36007C14 5.55771 14 5.77233 14 6.20157V11.6085C14 12.4456 14 12.8642 13.8305 13.1839C13.6813 13.4651 13.4433 13.6938 13.1507 13.8371C12.8179 14 12.3823 14 11.5111 14H2.48889C1.6177 14 1.1821 14 0.849348 13.8371C0.556652 13.6938 0.318682 13.4651 0.169545 13.1839C0 12.8642 0 12.4456 0 11.6085V6.20157Z" fill="#1B92FF"/>
</svg>
