<svg width="64" height="64" viewBox="0 0 64 64" fill="none" xmlns="http://www.w3.org/2000/svg">
<rect x="0.5" y="0.5" width="63" height="63" rx="15.5" fill="white"/>
<rect x="0.5" y="0.5" width="63" height="63" rx="15.5" stroke="#E6E6E6"/>
<path d="M32.0342 41.0114C30.9243 42.1213 29.5872 42.6762 28.0228 42.6763C26.4585 42.6764 25.1214 42.1216 24.0117 41.0119C22.902 39.9022 22.3471 38.565 22.3469 37.0003C22.3466 35.4356 22.9014 34.0984 24.0113 32.9885L26.6799 30.3199C26.8677 30.1321 27.0887 30.0382 27.3429 30.0383C27.5971 30.0383 27.8181 30.1323 28.006 30.3202C28.1939 30.5081 28.2878 30.729 28.2876 30.983C28.2875 31.237 28.1935 31.4579 28.0057 31.6457L25.336 34.3153C24.5945 35.0569 24.2237 35.9518 24.2237 37C24.2237 38.0482 24.5948 38.9434 25.3371 39.6856C26.0793 40.4279 26.9745 40.799 28.0227 40.799C29.0709 40.799 29.9658 40.4282 30.7074 39.6867L33.377 37.017C33.5648 36.8292 33.7858 36.7353 34.04 36.7353C34.2942 36.7354 34.5152 36.8294 34.7031 37.0173C34.891 37.2052 34.9849 37.4261 34.9847 37.6801C34.9846 37.9341 34.8906 38.1549 34.7028 38.3428L32.0342 41.0114ZM30.4194 35.9291C30.2315 36.1169 30.0106 36.2108 29.7564 36.2108C29.5022 36.2107 29.2812 36.1167 29.0933 35.9288C28.9054 35.7409 28.8115 35.52 28.8116 35.266C28.8118 35.012 28.9058 34.7912 29.0936 34.6033L34.3969 29.3C34.5847 29.1122 34.8057 29.0183 35.0599 29.0184C35.314 29.0184 35.5351 29.1124 35.723 29.3003C35.9109 29.4882 36.0048 29.7092 36.0046 29.9631C36.0045 30.2171 35.9105 30.438 35.7227 30.6258L30.4194 35.9291ZM38.1363 34.9092C37.9485 35.0971 37.7275 35.1909 37.4734 35.1909C37.2192 35.1908 36.9982 35.0968 36.8102 34.9089C36.6223 34.721 36.5285 34.5001 36.5286 34.2461C36.5287 33.9922 36.6227 33.7713 36.8106 33.5835L39.4802 30.9138C40.2218 30.1722 40.5926 29.2774 40.5926 28.2292C40.5926 27.181 40.2214 26.2857 39.4792 25.5435C38.737 24.8013 37.8417 24.4301 36.7935 24.4301C35.7453 24.4301 34.8505 24.8009 34.1089 25.5425L31.4392 28.2121C31.2514 28.4 31.0304 28.4939 30.7763 28.4938C30.5221 28.4937 30.3011 28.3998 30.1132 28.2119C29.9253 28.0239 29.8314 27.803 29.8315 27.549C29.8316 27.2951 29.9256 27.0742 30.1135 26.8864L32.7821 24.2177C33.8919 23.1079 35.229 22.5529 36.7934 22.5528C38.3578 22.5527 39.6948 23.1075 40.8045 24.2172C41.9142 25.3269 42.4692 26.6641 42.4694 28.2288C42.4696 29.7935 41.9148 31.1308 40.805 32.2406L38.1363 34.9092Z" fill="#ABABAB"/>
</svg>
